<?xml version="1.0" encoding="utf-8"?>
<!-- Generator: Adobe Illustrator 19.2.0, SVG Export Plug-In . SVG Version: 6.00 Build 0)  -->
<svg version="1.1" id="ALFONSO_X_EL_SABIO_1_" xmlns="http://www.w3.org/2000/svg" xmlns:xlink="http://www.w3.org/1999/xlink"
	 x="0px" y="0px" viewBox="0 0 1200 700" style="enable-background:new 0 0 1200 700;" xml:space="preserve">
<style type="text/css">
	.st0{fill:#003764;}
	.st1{fill:#FFFFFF;}
	.st2{fill:none;stroke:#003764;stroke-width:0.363;stroke-miterlimit:3.864;}
	.st3{fill:none;stroke:#003764;stroke-width:0.352;stroke-miterlimit:3.864;}
	.st4{clip-path:url(#SVGID_2_);fill:none;stroke:#003764;stroke-width:2.902;stroke-miterlimit:10;}
	.st5{fill:none;stroke:#003764;stroke-width:0.726;stroke-miterlimit:10;}
</style>
<g id="FONDO_Pantone_2955_1_">
	<polyline class="st0" points="0,700 0,0 1200,0 1200,700 	"/>
</g>
<g id="LOGO_ICONO_1T">
	<g>
		<path class="st1" d="M753.2,351.2c0-83.3-67.5-150.8-150.8-150.8s-150.8,67.5-150.8,150.8S519.1,502,602.4,502
			S753.2,434.5,753.2,351.2"/>
		<path class="st0" d="M724.9,349.6H601.8V227.7c-67.5,0.3-122.2,55.1-122.2,122.7l0,0h123.8V473c67.2-0.6,121.5-55.3,121.5-122.7
			C724.9,350.1,724.9,349.9,724.9,349.6"/>
		<path class="st1" d="M603,478.7V349.9h127.5c-0.3-70.6-57.6-127.8-128.3-127.8l0,0v129.5H474c0.6,70.3,57.8,127.1,128.3,127.1
			C602.5,478.7,602.8,478.7,603,478.7"/>
		<path class="st0" d="M611,475.4c-3.9-2-8.8-5.8-8.8-12.1c-0.2-0.2-2,8.3-7.7,12.1C532,471.6,482,422.1,477.3,359.9
			c2-4,5.8-9.2,12.3-9.2c0.2-0.2-8.7-2.1-12.4-8.1c3.8-62.5,53.4-112.6,115.6-117.3c0,0,6.3,2.1,9.9,12.6c0.2,0.2,2.2-9.1,8.5-12.6
			c62.3,4.4,112,54.2,116.1,116.6c-2,3.9-5.8,8.6-11.9,8.6c-0.2,0.2,8.1,2,12,7.5C723.6,420.8,673.6,471.1,611,475.4 M602.3,172.1
			c-98.5,0-178.3,79.8-178.3,178.3s79.8,178.3,178.3,178.3s178.3-79.8,178.3-178.3S700.7,172.1,602.3,172.1"/>
		<path class="st1" d="M613.5,361.8v95c0,10.8,10,14.4,12,9c0.5-1.5,1.1-4.3,3.1-3.8c1.9,0.5,1.3,3,0.6,4.9c0,0-3.9,10.8-13.7,10.8
			s-13.2-7.2-13.2-7.2s-3.4,7.2-13.2,7.2s-13.7-10.8-13.7-10.8c-0.8-1.9-1.3-4.5,0.6-4.9c1.9-0.5,2.5,2.4,3.1,3.8c2,5.4,12,1.8,12-9
			v-95l0,0h-95c-10.8,0-14.4,10-9,12c1.5,0.5,4.3,1.1,3.8,3.1c-0.5,1.9-3,1.3-4.9,0.6c0,0-10.8-3.9-10.8-13.7s7.2-13.2,7.2-13.2
			s-7.2-3.4-7.2-13.2c0-9.8,10.8-13.7,10.8-13.7c1.9-0.8,4.5-1.3,4.9,0.6c0.5,1.9-2.4,2.5-3.8,3.1c-5.4,2-1.8,12,9,12h95V339v-94.7
			c0-10.8-10-14.4-12-9c-0.5,1.5-1.1,4.3-3.1,3.8c-1.9-0.5-1.3-3-0.6-4.9c0,0,3.9-10.8,13.7-10.8s13.2,7.2,13.2,7.2
			s3.4-7.2,13.2-7.2s13.7,10.8,13.7,10.8c0.8,1.9,1.3,4.5-0.6,4.9c-1.9,0.5-2.5-2.4-3.1-3.8c-2-5.4-12-1.8-12,9v94.8v0.3h95
			c10.8,0,14.4-10,9-12c-1.5-0.5-4.3-1.1-3.8-3.1c0.5-1.9,3-1.3,4.9-0.6c0,0,10.8,3.9,10.8,13.7s-7.2,13.2-7.2,13.2
			s7.2,3.4,7.2,13.2s-10.8,13.7-10.8,13.7c-1.9,0.8-4.5,1.3-4.9-0.6c-0.5-1.9,2.4-2.5,3.8-3.1c5.4-2,1.8-12-9-12L613.5,361.8
			L613.5,361.8z"/>
		<path class="st2" d="M613.5,361.8v95c0,10.8,10,14.4,12,9c0.5-1.5,1.1-4.3,3.1-3.8c1.9,0.5,1.3,3,0.6,4.9c0,0-3.9,10.8-13.7,10.8
			s-13.2-7.2-13.2-7.2s-3.4,7.2-13.2,7.2s-13.7-10.8-13.7-10.8c-0.8-1.9-1.3-4.5,0.6-4.9c1.9-0.5,2.5,2.4,3.1,3.8c2,5.4,12,1.8,12-9
			v-95l0,0h-95c-10.8,0-14.4,10-9,12c1.5,0.5,4.3,1.1,3.8,3.1c-0.5,1.9-3,1.3-4.9,0.6c0,0-10.8-3.9-10.8-13.7s7.2-13.2,7.2-13.2
			s-7.2-3.4-7.2-13.2c0-9.8,10.8-13.7,10.8-13.7c1.9-0.8,4.5-1.3,4.9,0.6c0.5,1.9-2.4,2.5-3.8,3.1c-5.4,2-1.8,12,9,12h95V339v-94.7
			c0-10.8-10-14.4-12-9c-0.5,1.5-1.1,4.3-3.1,3.8c-1.9-0.5-1.3-3-0.6-4.9c0,0,3.9-10.8,13.7-10.8s13.2,7.2,13.2,7.2
			s3.4-7.2,13.2-7.2s13.7,10.8,13.7,10.8c0.8,1.9,1.3,4.5-0.6,4.9c-1.9,0.5-2.5-2.4-3.1-3.8c-2-5.4-12-1.8-12,9v94.8v0.3h95
			c10.8,0,14.4-10,9-12c-1.5-0.5-4.3-1.1-3.8-3.1c0.5-1.9,3-1.3,4.9-0.6c0,0,10.8,3.9,10.8,13.7s-7.2,13.2-7.2,13.2
			s7.2,3.4,7.2,13.2s-10.8,13.7-10.8,13.7c-1.9,0.8-4.5,1.3-4.9-0.6c-0.5-1.9,2.4-2.5,3.8-3.1c5.4-2,1.8-12-9-12L613.5,361.8
			L613.5,361.8z"/>
		<path class="st0" d="M608.3,356.4v105c0,1.6-0.8,1.3-1.2,0.5c-0.7-1.2-1.2-2-2.1-2s-1.1,0.9-1,2.2c0.1,1.1,1.1,11.1,10.4,11.1
			c0,0,2.7,0.1,5.5-1.6c-3.9-0.7-8.8-5.5-8.8-18v-94.5h94.5c12.6,0,17.3,4.9,18,8.8c1.7-2.9,1.6-5.5,1.6-5.5
			c0-9.2-10-10.3-11.1-10.4c-1.3-0.1-2.2,0.1-2.2,1s0.7,1.4,2,2.1c0.8,0.4,1.1,1.2-0.5,1.2C711.7,356.4,608.3,356.4,608.3,356.4"/>
		<path class="st3" d="M608.3,356.4v105c0,1.6-0.8,1.3-1.2,0.5c-0.7-1.2-1.2-2-2.1-2s-1.1,0.9-1,2.2c0.1,1.1,1.1,11.1,10.4,11.1
			c0,0,2.7,0.1,5.5-1.6c-3.9-0.7-8.8-5.5-8.8-18v-94.5h94.5c12.6,0,17.3,4.9,18,8.8c1.7-2.9,1.6-5.5,1.6-5.5
			c0-9.2-10-10.3-11.1-10.4c-1.3-0.1-2.2,0.1-2.2,1s0.7,1.4,2,2.1c0.8,0.4,1.1,1.2-0.5,1.2C711.7,356.4,608.3,356.4,608.3,356.4z"/>
		<path class="st0" d="M596.3,356.5h-105c-1.6,0-1.3-0.8-0.5-1.2c1.2-0.7,2-1.2,2-2.1s-0.9-1.1-2.2-1c-1.1,0.1-11.1,1.1-11.1,10.4
			c0,0-0.1,2.7,1.6,5.5c0.7-3.9,5.5-8.8,18-8.8h94.5v94.5c0,12.6-4.9,17.3-8.8,18c2.9,1.7,5.5,1.6,5.5,1.6c9.2,0,10.3-10,10.4-11.1
			c0.1-1.3-0.1-2.2-1-2.2s-1.4,0.7-2.1,2c-0.4,0.8-1.2,1.1-1.2-0.5S596.3,356.5,596.3,356.5"/>
		<path class="st3" d="M596.3,356.5h-105c-1.6,0-1.3-0.8-0.5-1.2c1.2-0.7,2-1.2,2-2.1s-0.9-1.1-2.2-1c-1.1,0.1-11.1,1.1-11.1,10.4
			c0,0-0.1,2.7,1.6,5.5c0.7-3.9,5.5-8.8,18-8.8h94.5v94.5c0,12.6-4.9,17.3-8.8,18c2.9,1.7,5.5,1.6,5.5,1.6c9.2,0,10.3-10,10.4-11.1
			c0.1-1.3-0.1-2.2-1-2.2s-1.4,0.7-2.1,2c-0.4,0.8-1.2,1.1-1.2-0.5S596.3,356.5,596.3,356.5z"/>
		<path class="st0" d="M596.2,344.4v-105c0-1.6,0.8-1.3,1.2-0.5c0.7,1.2,1.2,2,2.1,2c0.9,0,1.1-0.9,1-2.2
			c-0.1-1.1-1.1-11.1-10.4-11.1c0,0-2.7-0.1-5.5,1.6c3.9,0.7,8.8,5.5,8.8,18v94.5H499c-12.6,0-17.3-4.9-18-8.8
			c-1.7,2.9-1.6,5.5-1.6,5.5c0,9.2,10,10.3,11.1,10.4c1.3,0.1,2.2-0.1,2.2-1s-0.7-1.4-2-2.1c-0.8-0.4-1.1-1.2,0.5-1.2
			C492.8,344.4,596.2,344.4,596.2,344.4"/>
		<path class="st3" d="M596.2,344.4v-105c0-1.6,0.8-1.3,1.2-0.5c0.7,1.2,1.2,2,2.1,2c0.9,0,1.1-0.9,1-2.2
			c-0.1-1.1-1.1-11.1-10.4-11.1c0,0-2.7-0.1-5.5,1.6c3.9,0.7,8.8,5.5,8.8,18v94.5H499c-12.6,0-17.3-4.9-18-8.8
			c-1.7,2.9-1.6,5.5-1.6,5.5c0,9.2,10,10.3,11.1,10.4c1.3,0.1,2.2-0.1,2.2-1s-0.7-1.4-2-2.1c-0.8-0.4-1.1-1.2,0.5-1.2
			C492.8,344.4,596.2,344.4,596.2,344.4z"/>
		<path class="st1" d="M602.3,528.7c-98.5,0-178.3-79.8-178.3-178.3s79.8-178.3,178.3-178.3s178.3,79.8,178.3,178.3
			S700.7,528.7,602.3,528.7 M602.3,116.8c-129,0-233.6,104.6-233.6,233.6S473.3,584,602.3,584s233.6-104.6,233.6-233.6
			S731.3,116.8,602.3,116.8"/>
	</g>
	<g>
		<g>
			<defs>
				<path id="SVGID_1_" d="M424,350.4c0-98.5,79.8-178.3,178.3-178.3s178.3,79.8,178.3,178.3s-79.8,178.3-178.3,178.3
					S424,448.9,424,350.4 M368.6,350.4c0,129,104.6,233.6,233.6,233.6s233.6-104.6,233.6-233.6S731.2,116.8,602.2,116.8
					C473.2,116.8,368.6,221.4,368.6,350.4"/>
			</defs>
			<clipPath id="SVGID_2_">
				<use xlink:href="#SVGID_1_"  style="overflow:visible;"/>
			</clipPath>
			<path class="st4" d="M634.3,215.3l1.1-107.5 M567.5,107.8l1.1,107.5"/>
		</g>
	</g>
	<g>
		<path class="st5" d="M602.3,528.7c-98.5,0-178.3-79.8-178.3-178.3s79.8-178.3,178.3-178.3s178.3,79.8,178.3,178.3
			S700.7,528.7,602.3,528.7z M602.3,116.8c-129,0-233.6,104.6-233.6,233.6S473.3,584,602.3,584s233.6-104.6,233.6-233.6
			S731.3,116.8,602.3,116.8z"/>
	</g>
	<polygon class="st1" points="535.5,290.5 535.5,271.9 537,271.9 537,268.1 535.5,268.1 535.5,264.8 531.4,264.8 531.4,268.1 
		527.2,268.1 527.2,264.8 522.8,264.8 522.8,268.1 521.5,268.1 521.5,271.9 522.8,271.9 522.8,313.7 574.1,313.7 574.1,271.9 
		575.4,271.9 575.4,268.1 574.1,268.1 574.1,264.8 570.3,264.8 570.3,268.1 566.1,268.1 566.1,264.8 561.9,264.8 561.9,268.1 
		560.7,268.1 560.7,271.9 561.9,271.9 561.9,293 560.7,293 560.7,289.7 556.1,289.7 556.1,293 554.2,293 554.2,266.9 556.1,266.9 
		556.1,262 554.2,262 554.2,259.3 551.4,259.3 551.4,262 549.7,262 549.7,259.3 546.9,259.3 546.9,262 545.4,262 545.4,259.3 
		542.4,259.3 542.4,262 540.5,262 540.5,266.9 542.4,266.9 542.4,293 540.5,293 540.5,289.7 537,289.7 537,293 535.5,293 	"/>
	<rect x="519.9" y="316.8" class="st1" width="56.9" height="9.7"/>
	<g>
		<path class="st0" d="M546.9,284c0,0.3,0.3,0.9,0.5,1.2c0.3,0.2,0.8,0.5,1.2,0.5s0.8-0.3,1.2-0.5c0.3-0.3,0.4-0.9,0.4-1.2
			c0-0.5-0.1-0.8-0.4-1.1c-0.3-0.3-0.7-0.6-1.2-0.6c-0.4,0-0.9,0.2-1.2,0.6C547.2,283.2,546.9,283.5,546.9,284"/>
		<path class="st0" d="M527.4,287.7c0,0.5,0.1,1,0.5,1.2c0.3,0.3,0.8,0.5,1.1,0.5c0.5,0,0.9-0.2,1.2-0.5c0.3-0.2,0.5-0.7,0.5-1.2
			c0-0.3-0.2-0.8-0.5-1.2c-0.3-0.2-0.7-0.4-1.2-0.4c-0.3,0-0.8,0.2-1.1,0.4C527.4,286.9,527.4,287.4,527.4,287.7"/>
		<path class="st0" d="M566.3,287.7c0,0.5,0.2,1,0.5,1.2c0.3,0.3,0.6,0.5,1.2,0.5c0.4,0,0.8-0.2,1.2-0.5c0.2-0.2,0.3-0.7,0.3-1.2
			c0-0.3-0.1-0.8-0.3-1.2c-0.4-0.2-0.8-0.4-1.2-0.4c-0.5,0-0.8,0.2-1.2,0.4C566.5,286.9,566.3,287.4,566.3,287.7"/>
	</g>
	<rect x="527.7" y="274.7" class="st0" width="3" height="6"/>
	<rect x="566.3" y="274.7" class="st0" width="3.1" height="6"/>
	<rect x="546.9" y="268.9" class="st0" width="3" height="6"/>
	<rect x="527.7" y="303.8" class="st0" width="3" height="6"/>
	<rect x="566.3" y="303.8" class="st0" width="3.1" height="6"/>
	<rect x="546.9" y="297.9" class="st0" width="3" height="6.1"/>
	<polygon class="st1" points="641.1,401.1 641.1,382.5 642.6,382.5 642.6,378.7 641.1,378.7 641.1,375.4 636.9,375.4 636.9,378.7 
		632.7,378.7 632.7,375.4 628.4,375.4 628.4,378.7 627.1,378.7 627.1,382.5 628.4,382.5 628.4,424.3 679.7,424.3 679.7,382.5 
		681,382.5 681,378.7 679.7,378.7 679.7,375.4 675.8,375.4 675.8,378.7 671.7,378.7 671.7,375.4 667.5,375.4 667.5,378.7 
		666.3,378.7 666.3,382.5 667.5,382.5 667.5,403.6 666.3,403.6 666.3,400.3 661.7,400.3 661.7,403.6 659.8,403.6 659.8,377.5 
		661.7,377.5 661.7,372.6 659.8,372.6 659.8,369.9 657,369.9 657,372.6 655.3,372.6 655.3,369.9 652.5,369.9 652.5,372.6 
		650.9,372.6 650.9,369.9 647.9,369.9 647.9,372.6 646.1,372.6 646.1,377.5 647.9,377.5 647.9,403.6 646.1,403.6 646.1,400.3 
		642.6,400.3 642.6,403.6 641.1,403.6 	"/>
	<rect x="625.5" y="427.4" class="st1" width="56.9" height="9.7"/>
	<g>
		<path class="st0" d="M652.5,394.6c0,0.3,0.3,0.9,0.5,1.2c0.3,0.2,0.8,0.5,1.2,0.5s0.8-0.3,1.2-0.5c0.3-0.3,0.4-0.9,0.4-1.2
			c0-0.5-0.1-0.8-0.4-1.1c-0.3-0.3-0.7-0.6-1.2-0.6c-0.4,0-0.9,0.2-1.2,0.6C652.8,393.8,652.5,394.1,652.5,394.6"/>
		<path class="st0" d="M632.9,398.3c0,0.5,0.1,1,0.5,1.2c0.3,0.3,0.8,0.5,1.1,0.5c0.5,0,0.9-0.2,1.2-0.5c0.3-0.2,0.5-0.7,0.5-1.2
			c0-0.3-0.2-0.8-0.5-1.2c-0.3-0.2-0.7-0.4-1.2-0.4c-0.3,0-0.8,0.2-1.1,0.4C633,397.5,632.9,398,632.9,398.3"/>
		<path class="st0" d="M671.8,398.3c0,0.5,0.2,1,0.5,1.2c0.3,0.3,0.6,0.5,1.2,0.5c0.4,0,0.8-0.2,1.2-0.5c0.2-0.2,0.3-0.7,0.3-1.2
			c0-0.3-0.1-0.8-0.3-1.2c-0.4-0.2-0.8-0.4-1.2-0.4c-0.5,0-0.8,0.2-1.2,0.4C672,397.5,671.8,398,671.8,398.3"/>
	</g>
	<rect x="633.2" y="385.3" class="st0" width="3" height="6"/>
	<rect x="671.8" y="385.3" class="st0" width="3.1" height="6"/>
	<rect x="652.4" y="379.5" class="st0" width="3" height="6"/>
	<rect x="633.2" y="414.4" class="st0" width="3" height="6"/>
	<rect x="671.8" y="414.4" class="st0" width="3.1" height="6"/>
	<rect x="652.4" y="408.5" class="st0" width="3" height="6.1"/>
	<g>
		<path class="st0" d="M602.3,469.1l0.6,1.2c0.1,0.3,3.4,6.9,12.6,6.9c9.2,0,13.1-10.3,13.2-10.4c0.7-1.7,0.8-3,0.5-3.6
			c-0.1-0.2-0.3-0.4-0.7-0.5c-0.1,0-0.2,0-0.3,0c-0.9,0-1.5,1.6-1.9,2.8c-0.1,0.2-0.2,0.5-0.2,0.7c-0.7,1.8-2.2,2.9-4.2,2.9
			c-3.8,0-9-4.2-9-12.1v-95.6h95.6c7,0,11.3,4,12,8c0.4,2.4-0.6,4.4-2.8,5.2c-0.2,0.1-0.4,0.2-0.7,0.2c-1.7,0.5-3,1.1-2.8,2.1
			c0.1,0.4,0.3,0.8,1.3,0.8c0.7,0,1.7-0.2,2.8-0.7c0.1,0,10.4-3.9,10.4-13.2c0-9.3-6.8-12.6-6.9-12.6l-1.2-0.6l1.2-0.6
			c0.3-0.1,6.9-3.4,6.9-12.6c0-9.3-10.3-13.1-10.4-13.2c-1.1-0.4-2.1-0.7-2.8-0.7c-1,0-1.2,0.4-1.3,0.8c-0.2,1,1.1,1.6,2.8,2.1
			c0.3,0.1,0.5,0.2,0.7,0.2c2.2,0.8,3.2,2.8,2.8,5.2c-0.7,4-5.1,8-12,8h-95.6v-95.6c0-7.9,5.2-12.1,9-12.1c2,0,3.5,1.1,4.2,2.9
			c0.1,0.2,0.2,0.4,0.2,0.7c0.4,1.2,0.9,2.8,1.9,2.8c0.1,0,0.2,0,0.3,0c0.3-0.1,0.5-0.2,0.7-0.5c0.3-0.6,0.2-2-0.5-3.6
			c0-0.1-3.9-10.4-13.2-10.4s-12.5,6.6-12.6,6.9l-0.6,1.2l-0.6-1.2c-0.1-0.3-3.4-6.9-12.6-6.9c-9.2,0-13.1,10.3-13.2,10.4
			c-0.7,1.7-0.9,3-0.5,3.6c0.1,0.2,0.3,0.4,0.7,0.5c0.1,0,0.2,0,0.3,0c0.9,0,1.5-1.6,1.9-2.8c0.1-0.2,0.2-0.5,0.2-0.7
			c0.7-1.8,2.2-2.9,4.2-2.9c3.8,0,9,4.2,9,12.1v95.6H496c-7,0-11.3-4-12-8c-0.4-2.4,0.6-4.4,2.8-5.2c0.2-0.1,0.4-0.2,0.7-0.2
			c1.7-0.5,3-1.1,2.8-2.1c-0.1-0.4-0.3-0.8-1.3-0.8c-0.7,0-1.7,0.2-2.8,0.7c-0.1,0-10.4,3.9-10.4,13.2c0,9.3,6.8,12.6,6.9,12.6
			l1.2,0.6l-1.2,0.6c-0.3,0.1-6.9,3.4-6.9,12.6s10.3,13.1,10.4,13.2c1.1,0.4,2.1,0.7,2.8,0.7c1,0,1.2-0.4,1.3-0.8
			c0.2-1-1.1-1.6-2.8-2.1c-0.3-0.1-0.5-0.2-0.7-0.2c-2.2-0.8-3.2-2.8-2.8-5.2c0.7-4,5.1-8,12-8h95.6v0.6v95c0,7.9-5.2,12.1-9,12.1
			c-2,0-3.5-1.1-4.2-2.9c-0.1-0.2-0.2-0.4-0.2-0.7c-0.4-1.2-0.9-2.8-1.9-2.8c-0.1,0-0.2,0-0.3,0c-0.3,0.1-0.5,0.2-0.7,0.5
			c-0.3,0.6-0.2,2,0.5,3.6c0,0.1,3.9,10.4,13.2,10.4s12.6-6.8,12.6-6.9L602.3,469.1z M615.4,478.4c-8,0-11.8-4.6-13.2-6.6
			c-1.3,2.1-5.2,6.6-13.2,6.6c-10.1,0-14.3-11.1-14.3-11.2c-0.8-2.1-1-3.6-0.4-4.6c0.3-0.6,0.8-0.9,1.5-1.1c0.2,0,0.4-0.1,0.5-0.1
			c1.8,0,2.5,2.1,3,3.6c0.1,0.2,0.2,0.5,0.2,0.7c0.5,1.3,1.6,2.1,3,2.1c3.3,0,7.8-3.8,7.8-10.9v-94.4H496c-6.2,0-10.2,3.6-10.8,7
			c-0.3,1.8,0.4,3.3,2,3.8c0.2,0.1,0.4,0.1,0.7,0.2c1.5,0.5,4.1,1.4,3.6,3.6c-0.2,0.7-0.7,1.8-2.5,1.8c-0.9,0-2-0.3-3.2-0.8
			c-0.1,0-11.2-4.2-11.2-14.3c0-8,4.6-11.8,6.6-13.2c-2.1-1.3-6.6-5.2-6.6-13.2c0-10.1,11.1-14.3,11.2-14.3c1.2-0.5,2.3-0.8,3.2-0.8
			c1.8,0,2.4,1.1,2.5,1.8c0.5,2.2-2,3.1-3.6,3.6c-0.2,0.1-0.5,0.2-0.7,0.2c-1.6,0.6-2.3,2-2,3.8c0.6,3.4,4.6,7,10.8,7h94.4v-94.4
			c0-7.1-4.5-10.9-7.8-10.9c-1.5,0-2.5,0.7-3,2.1c-0.1,0.2-0.1,0.4-0.2,0.7c-0.5,1.5-1.2,3.6-3,3.6c-0.2,0-0.4,0-0.5-0.1
			c-0.7-0.2-1.2-0.5-1.5-1.1c-0.5-1-0.4-2.6,0.5-4.7c0-0.1,4.2-11.2,14.3-11.2c8,0,11.8,4.6,13.2,6.6c1.3-2.1,5.2-6.6,13.2-6.6
			c10.1,0,14.3,11.1,14.3,11.2c0.8,2.1,1,3.6,0.4,4.6c-0.3,0.6-0.8,0.9-1.5,1.1c-0.2,0-0.4,0.1-0.5,0.1c-1.8,0-2.5-2.1-3-3.6
			c-0.1-0.2-0.2-0.5-0.2-0.7c-0.5-1.3-1.6-2.1-3-2.1c-3.3,0-7.8,3.8-7.8,10.9v94.4h94.4c6.2,0,10.2-3.6,10.8-7
			c0.3-1.8-0.4-3.3-2-3.8c-0.2-0.1-0.4-0.1-0.7-0.2c-1.5-0.5-4.1-1.4-3.6-3.6c0.2-0.7,0.7-1.8,2.5-1.8c0.9,0,2,0.3,3.2,0.8
			c0.1,0,11.2,4.2,11.2,14.3c0,8-4.6,11.8-6.6,13.2c2.1,1.3,6.6,5.2,6.6,13.2c0,10.1-11.1,14.3-11.2,14.3c-1.2,0.5-2.3,0.8-3.2,0.8
			c-1.8,0-2.4-1.1-2.5-1.8c-0.5-2.2,2-3.1,3.6-3.6c0.2-0.1,0.5-0.2,0.7-0.2c1.6-0.6,2.3-2,2-3.8c-0.6-3.4-4.6-7-10.8-7h-94.4v94.4
			c0,7.1,4.5,10.9,7.8,10.9c1.5,0,2.5-0.7,3-2.1c0.1-0.2,0.1-0.4,0.2-0.7c0.5-1.5,1.2-3.6,3-3.6c0.2,0,0.4,0,0.5,0.1
			c0.7,0.2,1.2,0.5,1.5,1.1c0.5,1,0.4,2.6-0.5,4.7C629.7,467.3,625.5,478.4,615.4,478.4"/>
		<path class="st0" d="M608.2,344.4h105c1.6,0,1.3,0.8,0.5,1.2c-1.2,0.7-2,1.2-2,2.1s0.9,1.1,2.2,1c1.1-0.1,11.1-1.1,11.1-10.4
			c0,0,0.1-2.7-1.6-5.5c-0.7,3.9-5.5,8.8-18,8.8H611v-94.5c0-12.6,4.9-17.3,8.8-18c-2.9-1.7-5.5-1.6-5.5-1.6
			c-9.2,0-10.3,10-10.4,11.1c-0.1,1.3,0.1,2.2,1,2.2s1.4-0.7,2.1-2c0.4-0.8,1.2-1.1,1.2,0.5C608.2,241,608.2,344.4,608.2,344.4"/>
		<path class="st3" d="M608.2,344.4h105c1.6,0,1.3,0.8,0.5,1.2c-1.2,0.7-2,1.2-2,2.1s0.9,1.1,2.2,1c1.1-0.1,11.1-1.1,11.1-10.4
			c0,0,0.1-2.7-1.6-5.5c-0.7,3.9-5.5,8.8-18,8.8H611v-94.5c0-12.6,4.9-17.3,8.8-18c-2.9-1.7-5.5-1.6-5.5-1.6
			c-9.2,0-10.3,10-10.4,11.1c-0.1,1.3,0.1,2.2,1,2.2s1.4-0.7,2.1-2c0.4-0.8,1.2-1.1,1.2,0.5C608.2,241,608.2,344.4,608.2,344.4z"/>
		<path class="st0" d="M657.5,267c-0.7,0-1.3-0.6-1.3-1.3c0-0.7,0.6-1.3,1.3-1.3s1.3,0.6,1.3,1.3S658.2,267,657.5,267 M683.8,278
			c1.6,0,2.5,1.5,2.5,3s1.3,8.2,7,8.2c4.5,0,5.7-1.4,5.7-1.4s-3.8-2-5.9-6c-2.1-4-3.8-7.9-9.3-7.9s-7,4.2-7,7.6
			c0,6.2,8.5,12.4,8.5,16.1s-3.2,3.7-4.6,3.7s-15.2-4-15.2-15.4c0-1,3.1-1.5,3.1-1.5l-0.8-3l2.3-2l-1.2-2.5l2.4-2l-2.2-2.8l2-2.7
			l-2.4-1.9l2.1-2.6l-3.2-1.7l0.7-3.7H665l0.1-3.5l-4.5,1.2l-0.7-4.3l-3.3,3.3l-2.6-3.3l-1.6,3.9c0,0,0.3,0.2,0.3,0.6
			c0,0.3-1,0.2-1.5,1c-0.5,0.9-0.7,2.4-0.4,3.1c-0.7,0.6-5,3.3-5,7s4.6,3.2,4.6,3.2s5.1-0.9,5.1,1.6c0,2.4-2.6,2.5-3.8,2.5
			s-1.7-0.2-1.7-0.2s-0.4,0.5-0.1,1.1c-0.3,0.6-0.4,1.1-2.4,1.1h-2c-0.5,0-1-0.3-1.5-1.3c-0.4-1-3-7.6-3.2-8.3c-0.5-1.9,1-2.4,1-4.3
			s-1.9-4.2-1.9-4.2s-0.3,1.9-1,1.9s-1.9-1.7-3.4-1.9c0.1,0.8,0.9,1.4,0,2.3s-1.3-0.8-3.2,0.2c0,0,1.7,2.3,0.3,3.8
			c-1.3,1.5-0.4,1.9,1,4.7c1.4,2.8,3.3,10.6,3.3,10.6s-3.8-0.2-8.8-6.1c-0.5-0.7,0.2-2.4-0.8-4S624,268,624,268s0.5,1.3-0.3,2.1
			c-0.8,0.8-1.8-1-4-0.5c0.5,0.8,1.9,1.7,1,2.6s-1-0.2-2.9,1c1.9,0.7,2.4,2.4,2.2,3.5c-0.1,1.1-0.6,1.7,1.8,3.2
			c2.5,1.4,15.6,11.9,17.3,13.1c1.6,1.3,0.9,3.6,0.3,5.3c-0.6,1.7-0.1,3.1,3.5,2.5s4.1-1.2,7.1,0.2c3,1.3,5.6,2.3,5.9,3.5
			c0.4,1.2,0.9,2.4,0,3.5c-0.8,1.1-1.4,3.1-1.9,4.2s-3.5,0.6-3.6-1.1s1.1-4.7-2.7-6.3c0,0,0.3,1.5-0.8,1.8s-0.8-0.6-3.3-0.3
			c0.8,0.8,0.6,2-0.2,2.2c-0.8,0.3-1.5,0.3-2.4,0.9c1.6,0.5,2.6,2.5,2.1,3.2s0.5,3.7,4.5,5.4c4,1.7,11.8,4.5,15.8,1.8
			c4-2.8,4.4-5.8,7.4-5.8s4.2,7.4,11,7.4s6.1,2.1,5.6,4.1c-1-0.1-1.6-0.3-3.5-0.3s-2.4,1.1-2.4,1.1s1.3,0.6,1.3,1.5s-1.7,0.5-1.7,3
			c1-0.5,2.2-0.1,2.2,0.9s-0.3,1.7-0.3,2.5c0.9-0.9,1.3-1.2,2.4-1.2s2.2,1.3,3.3,1.3c1,0,6.7-5.4,6.7-9.3c0-2.4-1.1-0.6-1.1-4.1
			s-1.4-7.7-1.7-8.7c-0.3-0.9-0.9-1.1-2.3-1.5c-1.4-0.4-5.9-1.7-7.5-3.1c2.2-0.2,8.1-3.5,8.1-9.6s-6.8-11.4-8.4-14.6
			C681.2,279.9,682.1,278,683.8,278"/>
		<path class="st0" d="M654.9,273.4c0,0.9-1.2,1.9-3.5,1.9c-1.6,0-2.5-0.6-4.4-0.9c-1.3-0.2-2.2,0-2.2,0s0.8-1,3.4-1.3
			c2.6-0.3,3.2-0.7,4.2-1C653.5,271.9,654.9,272,654.9,273.4"/>
		<path class="st0" d="M539.5,381.6c-0.7,0-1.3-0.6-1.3-1.3c0-0.7,0.6-1.3,1.3-1.3s1.3,0.6,1.3,1.3
			C540.8,381.1,540.2,381.6,539.5,381.6 M565.8,392.6c1.6,0,2.5,1.5,2.5,3s1.3,8.2,7,8.2c4.5,0,5.7-1.4,5.7-1.4s-3.8-2-5.9-6
			c-2.1-4-3.8-7.9-9.3-7.9s-7,4.2-7,7.6c0,6.2,8.5,12.4,8.5,16.1s-3.2,3.7-4.6,3.7c-1.3,0-15.2-4-15.2-15.4c0-1,3.1-1.5,3.1-1.5
			l-0.8-3l2.3-2l-1.2-2.5l2.4-2l-2.2-2.8l2-2.7l-2.4-1.9l2.1-2.6l-3.2-1.7l0.7-3.7h-3.6l0.1-3.5l-4.5,1.2l-0.7-4.3l-3.3,3.3
			l-2.6-3.3l-1.6,3.9c0,0,0.3,0.2,0.3,0.6c0,0.3-1,0.2-1.5,1c-0.5,0.9-0.7,2.4-0.4,3.1c-0.7,0.6-5,3.3-5,7s4.6,3.2,4.6,3.2
			s5.1-0.9,5.1,1.6c0,2.4-2.6,2.5-3.8,2.5s-1.7-0.2-1.7-0.2s-0.4,0.5-0.1,1.1c-0.3,0.6-0.4,1.1-2.4,1.1h-2c-0.5,0-1-0.3-1.5-1.3
			c-0.4-1-3-7.6-3.2-8.3c-0.5-1.9,1-2.4,1-4.3s-1.9-4.2-1.9-4.2s-0.3,1.9-1,1.9s-1.9-1.7-3.4-1.9c0.1,0.8,0.9,1.4,0,2.3
			s-1.3-0.8-3.2,0.2c0,0,1.7,2.3,0.3,3.8c-1.3,1.5-0.4,1.9,1,4.7c1.4,2.8,3.3,10.6,3.3,10.6s-3.8-0.2-8.8-6.1
			c-0.5-0.7,0.2-2.4-0.8-4s-3.3-3.2-3.3-3.2s0.5,1.3-0.3,2.1c-0.8,0.8-1.8-1-4-0.5c0.5,0.8,1.9,1.7,1,2.6s-1-0.2-2.9,1
			c1.9,0.7,2.4,2.4,2.2,3.5c-0.1,1.1-0.6,1.7,1.8,3.2c2.5,1.4,15.6,11.9,17.3,13.1c1.6,1.3,0.9,3.6,0.3,5.3s-0.1,3.1,3.5,2.5
			s4.1-1.2,7.1,0.2c3,1.3,5.6,2.3,5.9,3.5c0.4,1.2,0.9,2.4,0,3.5c-0.8,1.1-1.4,3.1-1.9,4.2s-3.5,0.6-3.6-1.1s1.1-4.7-2.7-6.3
			c0,0,0.3,1.5-0.8,1.8s-0.8-0.6-3.3-0.3c0.8,0.8,0.6,2-0.2,2.2c-0.8,0.3-1.5,0.3-2.4,0.9c1.6,0.5,2.6,2.5,2.1,3.2s0.5,3.7,4.5,5.4
			c4,1.7,11.8,4.5,15.8,1.8c4-2.8,4.4-5.8,7.4-5.8s4.2,7.4,11,7.4s6.1,2.1,5.6,4.1c-1-0.1-1.6-0.3-3.5-0.3s-2.4,1.1-2.4,1.1
			s1.3,0.6,1.3,1.5s-1.7,0.5-1.7,3c1-0.5,2.2-0.1,2.2,0.9s-0.3,1.7-0.3,2.5c0.9-0.9,1.3-1.2,2.4-1.2c1.1,0,2.2,1.3,3.3,1.3
			s6.7-5.4,6.7-9.3c0-2.4-1.1-0.6-1.1-4.1s-1.4-7.7-1.7-8.7c-0.3-0.9-0.9-1.1-2.3-1.5c-1.4-0.4-5.9-1.7-7.5-3.1
			c2.2-0.2,8.1-3.5,8.1-9.6s-6.8-11.4-8.4-14.6C563.2,394.6,564.1,392.6,565.8,392.6"/>
		<path class="st0" d="M536.9,388.1c0,0.9-1.2,1.9-3.5,1.9c-1.6,0-2.5-0.6-4.4-0.9c-1.3-0.2-2.2,0-2.2,0s0.8-1,3.4-1.3
			c2.6-0.3,3.2-0.7,4.2-1C535.6,386.6,536.9,386.7,536.9,388.1"/>
		<path class="st0" d="M720.1,171.6c0.8-1.2,0.9-2.3,0.5-3.3s-1.2-2-2.4-2.9s-3-2.1-5.4-3.7l-5.1,8c0.2,0.1,0.5,0.3,0.9,0.6
			s0.7,0.5,0.9,0.6c1.2,0.8,2.5,1.3,3.9,1.8c1.4,0.4,2.7,0.6,3.9,0.4C718.6,173,719.5,172.5,720.1,171.6 M715.7,186
			c0.6-1,0.8-2,0.7-3.2c-0.2-1.2-0.8-2.5-2-3.9s-3-2.9-5.4-4.4c-0.2-0.1-0.5-0.3-0.9-0.5s-0.8-0.4-1.2-0.7c-0.4-0.2-0.7-0.4-1-0.6
			l-6.3,10c1.8,1.5,3.6,2.8,5.4,3.9c2.2,1.4,4.3,2.1,6.2,2.1C713.1,188.7,714.6,187.8,715.7,186 M721.9,189.9
			c-1.4,2.2-3.2,3.4-5.6,3.6c-2.3,0.2-4.7-0.1-7-1s-4.4-1.9-6.3-3.1l-13.4-8.4c1.2,0.1,2.1,0,2.6-0.3c0.6-0.3,1.2-0.9,1.8-1.9
			l12.6-20.1c0.5-0.8,0.8-1.6,0.8-2.4c0.1-0.8-0.2-1.6-0.8-2.4l12.5,7.9c2.2,1.4,4,2.9,5.4,4.5s2.3,3.2,2.6,4.8s0.1,3-0.7,4.3
			c-0.7,1.1-1.8,1.8-3.5,2.2c-1.6,0.4-3.3,0.3-4.9-0.3c2.1,2.2,3.6,4.3,4.5,6.3C723.5,185.6,723.3,187.7,721.9,189.9"/>
		<path class="st0" d="M763.4,221.9c1.2-1.1,2.2-2.5,2.8-4.2c0.7-1.7,1-3.5,1-5.5s-0.4-4-1.1-6c-0.8-2-2-3.9-3.7-5.7
			c-1.2-1.3-2.6-2.4-4.3-3.2c-1.6-0.8-3.4-1.4-5.3-1.6c-1.9-0.2-3.7,0-5.5,0.5s-3.4,1.5-4.9,2.8c-1.3,1.3-2.3,2.7-2.9,4.5
			c-0.6,1.7-0.8,3.6-0.6,5.5s0.7,3.8,1.6,5.7c0.9,1.9,2,3.6,3.5,5.1c1.5,1.6,3.1,2.8,4.8,3.7s3.4,1.4,5.2,1.5c1.7,0.1,3.4-0.1,5-0.6
			C760.7,224,762.1,223.1,763.4,221.9 M769.1,227c-1.3,1.3-3.1,2.2-5.2,2.9c-2.1,0.7-4.4,1-6.9,0.8s-5.1-0.9-7.8-2.2s-5.3-3.3-7.8-6
			c-3.4-3.6-5.8-7.3-7.3-11c-1.4-3.7-1.9-7-1.4-10.2c0.5-3.1,1.9-5.8,4.2-7.9c1.3-1.3,3-2.3,5.1-3c2-0.7,4.3-1,6.9-0.9
			c2.5,0.1,5.2,1,8.1,2.4c2.9,1.5,5.7,3.7,8.4,6.6c3,3.2,5.2,6.5,6.6,10c1.4,3.5,1.9,6.8,1.4,10.1C773,222,771.5,224.7,769.1,227"/>
		<path class="st0" d="M809.2,266.9c-0.4-0.3-0.8-0.6-1.2-1s-0.8-0.6-1.2-0.8c-0.3-0.1-0.8-0.2-1.4-0.1c-0.6,0-1.4,0.2-2.4,0.6
			l-24.9,13.1c-0.3-0.5-0.5-1.3-0.7-2.2c-0.2-0.9-0.3-1.9-0.3-2.9s0.1-1.8,0.3-2.4l9.7-31.7l-17.9,9.4c-1.2,0.6-2,1.3-2.4,2.1
			s-0.5,1.9-0.4,3.3l-5.5-10.5c0.4,0.3,0.8,0.5,1.3,0.9c0.5,0.3,0.9,0.5,1.3,0.7c0.4,0.1,0.9,0.2,1.5,0.2s1.2-0.2,1.8-0.4L786,235
			c1-0.5,1.8-1.1,2.2-1.6c0.5-0.5,0.8-1,0.9-1.5c0.1-0.5,0.2-1,0.1-1.6c0-0.6-0.1-1.1-0.1-1.4l4.3,8.3l-10.2,33.9l17.3-9.1
			c1.4-0.7,2.3-1.6,2.8-2.7s0.5-2.2,0-3.4L809.2,266.9z"/>
		<path class="st0" d="M791.4,324.3l-2.2-9l3-0.7c-0.4-0.3-0.9-0.6-1.5-1.1c-0.6-0.4-1.2-1-1.8-1.8c-0.6-0.7-1.2-1.7-1.8-3
			s-1.1-2.8-1.6-4.7c-0.6-2.7-0.9-5-0.7-7.1s0.7-3.8,1.5-5.2c0.8-1.4,1.8-2.5,2.9-3.3c1.2-0.8,2.4-1.3,3.6-1.6l17.3-4.2
			c0.9-0.2,1.7-0.6,2.2-1.1s0.9-1.2,1.3-2.1l2.6,11c-0.5-0.4-1.1-0.7-2-1c-0.9-0.2-1.7-0.3-2.4-0.1l-16.5,4
			c-1.9,0.5-3.4,1.3-4.3,2.5c-1,1.2-1.5,2.5-1.7,4s-0.1,2.9,0.3,4.4c0.5,2.1,1.2,3.9,2.2,5.3c0.9,1.4,2,2.4,3.2,3s2.4,0.7,3.6,0.4
			l16.4-4c1.5-0.4,2.6-0.8,3.3-1.5c0.7-0.6,1.2-1.5,1.5-2.5l2.7,11.2c-0.9-0.7-1.8-1.1-2.8-1.2s-2.1,0-3.2,0.3l-21.2,5.1
			c-1.2,0.3-2.1,0.7-2.8,1.3C791.8,322.3,791.5,323.2,791.4,324.3"/>
		<path class="st0" d="M788.9,396.2l1.2-13.2c0.1,1.1,0.6,1.9,1.4,2.4c0.8,0.5,1.5,0.8,2.4,0.8l1,0.1l22-1.4l-25.5-16
			c0.2-1.7,2-3.5,5.2-5.1l23.1-10.3l-21.3-5.9c-0.8-0.1-1.5-0.1-2,0c-0.6,0.1-1.1,0.3-1.6,0.7c-0.5,0.4-1,1-1.6,1.8l1-11.3
			c0.4,1.1,1.1,2.1,2.1,2.8c1,0.7,1.9,1.1,2.6,1.1l21.7,6c0.3,0,0.7,0.1,1.1,0.2c0.4,0.1,0.7,0.1,0.8,0.1c0.5,0,0.8,0,1.1,0
			c0.3-0.1,0.5-0.2,0.6-0.3c0.1-0.1,0.4-0.4,0.8-0.8c0.4-0.4,0.6-0.7,0.7-0.8l-1,10.7L800,369.1l22.5,13.2l-1,11.4
			c-0.2-0.8-0.5-1.5-1-2.1s-1.1-0.8-1.7-0.9c0,0-0.2,0-0.4,0.1s-0.4,0.1-0.4,0.1l-23.5,1.9c-1.4,0.3-2.5,0.7-3.4,1.1
			C790,394.4,789.3,395.2,788.9,396.2"/>
		<path class="st0" d="M762.3,465.5l-3.8-6.3l13.4-21.9c0.1,1.2,0.4,2.1,0.7,2.8c0.4,0.7,0.9,1.2,1.6,1.6l19.1,11.6
			c1.1,0.7,2.1,1.1,2.9,1.3c0.8,0.2,1.8,0,3-0.7l-10.6,17.3c-0.7,1.1-1.1,2-1.3,2.7l-5.2-3.2c1.1-0.3,2.2-1,3.1-2.1
			c1-1.1,2.1-2.6,3.3-4.6l2.8-4.5l-7.6-4.6l-3.1,5c-0.7,1.1-1.2,1.9-1.5,2.6c-0.3,0.6-0.5,1.1-0.6,1.6l-4.6-2.8
			c1.3-0.2,2.8-1.6,4.4-4.3l2.4-3.8l-9.8-6c-0.5,0.7-1.2,1.5-1.9,2.4s-1.3,1.7-1.8,2.4c-0.5,0.7-1.1,1.5-1.6,2.4
			C763.4,457.9,762.2,461.7,762.3,465.5"/>
		<path class="st0" d="M734.2,500.4c-1.1-1.1-1.8-2.4-2.1-4s-0.2-3.3,0.4-5.1c0.5-1.8,1.4-3.6,2.6-5.5c1.2-1.8,2.6-3.6,4.3-5.4
			c0.8-0.8,1.7-1.6,2.6-2.4c0.9-0.8,1.9-1.6,2.9-2.3c1-0.8,2-1.5,3-2.2l5.5,3.3c-1.5,0.3-3,0.7-4.4,1.4c-1.4,0.6-2.7,1.4-4,2.3
			s-2.4,1.8-3.4,2.8c-1.1,1.1-2,2.3-2.7,3.7c-0.7,1.4-1.1,2.7-1.2,3.9c-0.1,1.2,0.2,2.1,0.9,2.8c1.5,1.5,4.5,1.3,8.8-0.7
			c0.8-0.4,2.3-1.1,4.6-2.2c2.2-1.1,4.1-1.9,5.7-2.4c1.5-0.5,3-0.7,4.4-0.6s2.6,0.6,3.6,1.6c1.4,1.4,2.1,3,2.1,5
			c0,1.9-0.6,3.9-1.7,6c-1.1,2.1-2.6,4-4.3,5.8c-1.4,1.5-3,2.9-4.6,4.4c-1.7,1.4-2.9,2.4-3.7,2.7l-3.9-3.8c1.4-0.3,3-1,4.8-2
			s3.3-2.2,4.7-3.6c1.4-1.5,2.4-3,2.9-4.6s0.3-2.9-0.6-3.7c-0.6-0.6-1.5-0.9-2.5-0.8c-1.1,0-2.3,0.3-3.5,0.8
			c-1.3,0.5-3.1,1.3-5.6,2.5s-3.8,1.8-3.9,1.9c-2,1-4.1,1.6-6.3,1.9C737.1,502,735.4,501.6,734.2,500.4"/>
		<path class="st0" d="M713,544.1l-1.3-6.5c0.5,0.4,1.3,0.4,2.3,0.1c1-0.3,2-0.8,3.1-1.5l5-3.4l-14-20.7c-0.5-0.7-1.1-1-1.8-1.1
			c-0.8,0-1.8,0.1-3.1,0.3l10.6-7.2c-1.2,1.7-1.4,3.2-0.5,4.5l14,20.7l3.9-2.7c1.4-1,2.6-2,3.6-3s1.7-2.1,2.1-3.2l1.8,6.1
			c-0.5,0-1.5,0.5-3,1.5l-20.2,13.7c-0.6,0.4-1.1,0.8-1.4,1C713.9,543,713.5,543.5,713,544.1"/>
		<path class="st0" d="M623.8,555.2c0.8,4.6,2.9,7.4,6.3,8.6c3.4,1.2,7.4,1.4,11.8,0.7c1-0.2,2.1-0.4,3.3-0.6c1.2-0.3,2-0.4,2.3-0.5
			l-3.9-23.4c-1.4-0.2-2.9-0.1-4.5,0.1c-2.4,0.4-4.9,1.3-7.4,2.7c-2.6,1.4-4.7,3.2-6.3,5.3C624,550.3,623.4,552.7,623.8,555.2
			 M616.6,556.8c-0.3-1.9-0.1-3.8,0.6-5.8c0.7-2,2-4,3.8-5.9s4.1-3.5,6.9-5c2.8-1.4,6.1-2.4,9.9-3.1l14.6-2.4
			c-1.1,0.7-1.8,1.5-2.1,2.3s-0.3,1.9-0.1,3.1l3.7,22.2c0.1,0.7,0.3,1.3,0.5,1.7s0.5,0.8,0.8,1s0.7,0.4,1.1,0.6
			c0.4,0.2,0.9,0.4,1.3,0.6l-15,2.5c-3.6,0.6-7,0.7-10.1,0.2c-3.1-0.4-5.7-1.3-8-2.5c-2.2-1.2-4-2.7-5.4-4.3
			C617.8,560.5,616.9,558.7,616.6,556.8"/>
		<path class="st0" d="M590,540.1l13.7,0.4c-0.8,0.1-1.6,0.5-2.3,1.3c-0.8,0.8-1.2,1.7-1.2,2.7l-0.6,23.5c0,1,0.2,1.9,0.6,2.7
			c0.4,0.7,1.2,1.4,2.4,1.9l-12.5-0.3c1.1-0.5,1.9-1.1,2.4-1.8s0.8-1.7,0.8-3l0.6-23c0-0.5-0.2-1.1-0.6-1.7
			c-0.4-0.6-0.9-1.2-1.5-1.7C591.2,540.5,590.6,540.2,590,540.1"/>
		<path class="st0" d="M548,560.2c0.4,0.8,1.4,1.5,2.8,2.2c1.4,0.6,3.1,1.1,5,1.5c2.4,0.5,4.4,0.7,6,0.7l1.6-8.4l-6.8-1.3
			c-2.4-0.5-3.7-0.6-4-0.4l1-5.3c0.5,1.1,2.6,2,6.2,2.7c0.7,0.1,2.1,0.3,4.3,0.6l2-10.2c0.5-2.8-0.3-4.6-2.5-5.6l12.7,2.5
			c-1.4,0.2-2.4,0.7-2.9,1.5s-0.9,1.7-1.1,2.9l-4.4,22.4c-0.2,0.9-0.2,1.7,0,2.4s0.8,1.4,1.7,2.1l-18.5-3.6c-2.5-0.5-4-0.7-4.3-0.5
			L548,560.2z"/>
		<path class="st0" d="M509.7,546.3c0.3,0.9,1.1,1.8,2.3,2.6c1.3,0.9,2.8,1.7,4.6,2.4c2.3,0.9,4.2,1.5,5.8,1.8l3.2-7.9l-6.4-2.6
			c-2.2-0.9-3.5-1.3-3.9-1.1l2-5c0.3,1.1,2.2,2.4,5.6,3.8c0.7,0.3,2,0.7,4.1,1.4l3.9-9.6c1-2.6,0.6-4.6-1.4-6l12,4.8
			c-1.4,0-2.5,0.3-3.1,0.9c-0.6,0.7-1.2,1.5-1.6,2.6l-8.5,21.2c-0.3,0.9-0.5,1.6-0.4,2.4c0.1,0.7,0.5,1.5,1.3,2.4l-17.5-7
			c-2.4-1-3.8-1.4-4.2-1.3L509.7,546.3z"/>
		<path class="st0" d="M479.3,496.5l7.6,5.2l-1.7,2.5c0.5-0.1,1.1-0.1,1.8-0.2c0.8-0.1,1.6-0.1,2.5,0.1s2.1,0.5,3.4,1
			s2.8,1.4,4.3,2.4c2.3,1.5,4,3.1,5.3,4.8c1.2,1.7,2,3.3,2.4,4.8c0.3,1.6,0.3,3,0,4.4s-0.9,2.6-1.6,3.7l-10,14.7
			c-0.5,0.8-0.8,1.5-0.9,2.3c0,0.7,0.1,1.5,0.5,2.4l-9.3-6.4c0.6,0,1.3-0.2,2.1-0.6c0.8-0.4,1.4-0.9,1.9-1.6l9.6-14
			c1.1-1.6,1.6-3.2,1.6-4.8c-0.1-1.5-0.6-2.9-1.4-4.1c-0.9-1.2-1.9-2.2-3.2-3.1c-1.8-1.2-3.5-2.1-5.2-2.5s-3.1-0.5-4.4-0.1
			s-2.3,1.1-3,2.1l-9.5,14c-0.9,1.3-1.4,2.4-1.5,3.3c-0.1,0.9,0.1,1.9,0.6,2.9l-9.5-6.5c1.1-0.1,2-0.4,2.8-1s1.5-1.4,2.2-2.4
			l12.3-18c0.7-1,1.1-2,1.2-2.8C480.3,498.3,480,497.4,479.3,496.5"/>
		<path class="st0" d="M442.8,470.7c1.2-1,2.6-1.6,4.1-1.8c1.6-0.2,3.3,0.1,5,0.8c1.8,0.7,3.5,1.7,5.3,3s3.4,2.9,5,4.7
			c0.8,0.9,1.5,1.8,2.2,2.8s1.4,2,2.1,3.1s1.3,2.1,1.9,3.2l-3.7,5.2c-0.2-1.6-0.5-3.1-1-4.5s-1.2-2.8-2-4.2
			c-0.8-1.3-1.6-2.5-2.6-3.6s-2.2-2.1-3.5-3c-1.3-0.8-2.6-1.3-3.7-1.5c-1.2-0.2-2.1,0-2.9,0.7c-1.6,1.4-1.6,4.4,0.1,8.8
			c0.3,0.8,0.9,2.4,1.8,4.7c0.9,2.3,1.6,4.3,1.9,5.8c0.4,1.6,0.5,3,0.3,4.4s-0.8,2.5-1.9,3.4c-1.5,1.3-3.2,1.9-5.1,1.7
			c-1.9-0.2-3.9-0.9-5.8-2.1c-2-1.3-3.8-2.9-5.5-4.8c-1.3-1.5-2.7-3.2-4-5s-2.1-3.1-2.5-3.9l4.1-3.6c0.2,1.4,0.8,3.1,1.6,4.9
			c0.9,1.8,2,3.5,3.3,4.9c1.3,1.5,2.8,2.6,4.4,3.2s2.8,0.5,3.8-0.3c0.6-0.6,1-1.4,1-2.5s-0.1-2.3-0.5-3.6c-0.4-1.3-1.1-3.2-2.1-5.8
			c-1-2.6-1.5-3.9-1.6-4c-0.8-2.1-1.3-4.2-1.4-6.4C440.9,473.4,441.5,471.8,442.8,470.7"/>
		<path class="st0" d="M436.6,443.7l7.1,11.7c-0.5-0.6-1.3-1-2.4-1.3c-1.1-0.2-2-0.1-2.9,0.5l-20,12.3c-0.9,0.5-1.5,1.2-1.9,1.9
			s-0.5,1.8-0.3,3.1l-6.5-10.6c1,0.6,2,1,2.8,1s1.8-0.3,3-1l19.6-12c0.4-0.3,0.8-0.7,1.1-1.4c0.3-0.7,0.5-1.4,0.6-2.2
			C436.9,444.9,436.8,444.2,436.6,443.7"/>
		<path class="st0" d="M387.8,411.1l37.2,4.2c0.5,3.2-0.6,6.2-3.3,9l-17.4,18.1c-1.6,1.7-2.5,3.4-2.8,4.9l-3.5-9.4
			c0.4,0.1,0.8,0,1.2-0.2c0.1-0.1,0.5-0.3,1.2-0.7c0.6-0.4,1.1-0.8,1.3-1l16.9-17.2l-23.6-2.2c-0.1,0.1-0.3,0.1-0.6,0.2
			c-0.3,0.1-0.5,0.1-0.6,0.2c-0.6,0.2-1.2,0.7-1.6,1.4c-0.4,0.7-0.6,1.5-0.7,2.4L387.8,411.1z"/>
		<path class="st0" d="M411.4,354.6l1.1,9.2l-3.1,0.4c0.4,0.3,0.8,0.7,1.4,1.2s1.1,1.2,1.6,2s1,1.9,1.5,3.2c0.5,1.4,0.8,3,1,4.8
			c0.3,2.7,0.3,5.1-0.1,7.1s-1.1,3.7-2.1,5s-2.1,2.3-3.3,2.9c-1.2,0.7-2.5,1.1-3.8,1.2l-17.6,2.2c-1,0.1-1.7,0.4-2.3,0.8
			c-0.6,0.4-1.1,1.1-1.5,2l-1.4-11.2c0.4,0.5,1,0.9,1.9,1.2c0.9,0.3,1.7,0.5,2.4,0.4l16.8-2.1c2-0.2,3.5-0.9,4.6-2s1.8-2.3,2.1-3.8
			c0.3-1.4,0.4-2.9,0.2-4.4c-0.3-2.2-0.8-4-1.5-5.6c-0.8-1.5-1.7-2.6-2.8-3.3c-1.1-0.7-2.3-1-3.6-0.8l-16.8,2.1
			c-1.5,0.2-2.7,0.5-3.4,1.1c-0.8,0.5-1.4,1.3-1.8,2.4l-1.4-11.4c0.8,0.8,1.6,1.3,2.6,1.5s2,0.3,3.2,0.1l21.7-2.7
			c1.2-0.2,2.2-0.5,2.9-0.9C410.7,356.5,411.2,355.7,411.4,354.6"/>
		<path class="st0" d="M421.9,283.9l-2.7,13c0-1.1-0.4-1.9-1.1-2.5s-1.5-0.9-2.3-1.1l-1-0.2l-22-1.1l23.5,18.8
			c-0.4,1.7-2.3,3.2-5.7,4.5l-24.2,7.6l20.5,8.3c0.8,0.2,1.4,0.2,2,0.2s1.1-0.2,1.7-0.5c0.5-0.3,1.1-0.8,1.8-1.6l-2.3,11.1
			c-0.3-1.2-0.8-2.2-1.7-3c-0.9-0.8-1.7-1.3-2.5-1.4l-20.9-8.4c-0.3-0.1-0.7-0.2-1.1-0.3c-0.4-0.1-0.7-0.2-0.8-0.2
			c-0.5-0.1-0.8-0.1-1.1-0.1c-0.3,0-0.5,0.1-0.6,0.2c-0.2,0.1-0.4,0.3-0.8,0.7c-0.4,0.4-0.7,0.6-0.8,0.7l2.2-10.5l25.8-8.4
			L387.2,294l2.3-11.2c0.1,0.9,0.3,1.6,0.8,2.2s1,1,1.6,1.1c0,0,0.2,0,0.4-0.1c0.2,0,0.4-0.1,0.4,0l23.6,0.8
			c1.4-0.1,2.5-0.4,3.5-0.8C420.7,285.6,421.4,285,421.9,283.9"/>
		<path class="st0" d="M454.4,216.1c1.2,1,2.1,2.2,2.5,3.7c0.5,1.5,0.5,3.2,0.2,5.1c-0.3,1.8-1,3.8-1.9,5.7c-1,2-2.2,3.9-3.7,5.8
			c-0.7,0.9-1.5,1.8-2.3,2.7s-1.7,1.8-2.6,2.6c-0.9,0.9-1.9,1.7-2.8,2.5l-5.8-2.7c1.5-0.5,2.9-1.1,4.2-1.9c1.3-0.8,2.6-1.7,3.7-2.7
			c1.2-1,2.2-2.1,3.1-3.2c0.9-1.2,1.7-2.5,2.3-4c0.6-1.4,0.8-2.8,0.8-4s-0.4-2.1-1.2-2.7c-1.7-1.3-4.6-0.8-8.6,1.7
			c-0.8,0.4-2.2,1.3-4.3,2.7c-2.1,1.3-3.9,2.3-5.4,3s-2.9,1-4.3,1.1s-2.6-0.3-3.7-1.2c-1.6-1.2-2.4-2.8-2.6-4.7s0.1-4,1-6.1
			c0.9-2.2,2.1-4.3,3.7-6.3c1.3-1.6,2.6-3.2,4.1-4.8s2.6-2.7,3.4-3.1l4.3,3.3c-1.4,0.5-2.9,1.3-4.5,2.5s-3.1,2.6-4.3,4.1
			c-1.3,1.6-2,3.2-2.3,4.9s0,2.9,1,3.6c0.7,0.5,1.6,0.7,2.6,0.6c1.1-0.2,2.2-0.5,3.4-1.1c1.2-0.6,3-1.6,5.3-3.1s3.5-2.2,3.7-2.3
			c1.9-1.2,3.9-2.1,6-2.6C451.4,214.8,453.1,215.1,454.4,216.1"/>
		<path class="st0" d="M498.9,189.9l-7.2,5.8l-1.9-2.4c-0.1,0.5-0.2,1.1-0.3,1.8c-0.1,0.8-0.4,1.5-0.8,2.4s-1.1,1.8-2,2.9
			c-0.9,1.1-2.1,2.2-3.6,3.4c-2.1,1.7-4.2,2.9-6.1,3.6c-2,0.7-3.7,1-5.3,0.8c-1.6-0.1-3-0.6-4.2-1.3s-2.2-1.6-3-2.6l-11.1-13.9
			c-0.6-0.8-1.2-1.3-1.9-1.5c-0.7-0.2-1.5-0.3-2.5-0.2l8.8-7c-0.2,0.6-0.2,1.3,0,2.2s0.5,1.6,0.9,2.2l10.6,13.3
			c1.2,1.6,2.6,2.5,4.1,2.9s2.9,0.3,4.3-0.2s2.7-1.2,3.9-2.1c1.7-1.4,3-2.8,3.9-4.2c0.9-1.5,1.4-2.8,1.4-4.2c0-1.3-0.4-2.5-1.2-3.5
			L475.2,175c-1-1.2-1.9-2-2.7-2.4c-0.9-0.4-1.8-0.5-2.9-0.3l9-7.2c-0.2,1.1-0.2,2.1,0.1,3c0.3,0.9,0.8,1.9,1.6,2.8l13.6,17.1
			c0.8,1,1.5,1.6,2.3,2C497,190.3,497.9,190.3,498.9,189.9"/>
		<path class="st0" d="M523,177.6l-12.2,6.2c0.6-0.5,1.1-1.2,1.5-2.2c0.3-1,0.3-2-0.2-3l-10.6-20.9c-0.5-0.9-1.1-1.6-1.8-2.1
			c-0.7-0.5-1.7-0.6-3-0.5l11.1-5.6c-0.7,1-1.1,1.9-1.3,2.7c-0.1,0.8,0.1,1.9,0.7,3l10.4,20.6c0.2,0.4,0.7,0.9,1.3,1.2
			c0.6,0.4,1.3,0.6,2.1,0.8C521.8,177.9,522.4,177.8,523,177.6"/>
		<path class="st1" d="M715.1,260l-6,1.7l-14.9-15.6c1,0.2,1.8,0.2,2.4,0c0.6-0.2,1.2-0.5,1.6-0.9l13.6-13c0.8-0.8,1.4-1.5,1.7-2.1
			s0.4-1.5,0.1-2.6l11.8,12.3c0.8,0.8,1.4,1.3,1.9,1.6l-3.7,3.5c0-1-0.3-2-1-3s-1.7-2.3-3-3.7l-3.1-3.2l-5.4,5.2l3.4,3.6
			c0.7,0.8,1.3,1.4,1.8,1.8c0.4,0.4,0.8,0.7,1.2,0.8l-3.3,3.2c0.1-1.1-0.7-2.6-2.6-4.5l-2.6-2.7l-7,6.7c0.5,0.6,1,1.3,1.5,2
			c0.6,0.8,1.1,1.4,1.6,2s1,1.2,1.6,1.8C709.1,257.5,712,259.2,715.1,260"/>
		<path class="st1" d="M733.9,290.7l-6.2,0.2l-10.9-19.3c1,0.6,1.8,1,2.5,1s1.3-0.1,1.9-0.5l0.9-0.5l16.5-9.4c0.7-0.4,1.1-0.7,1.3-1
			s0.4-0.8,0.4-1.3c0.1-0.6,0.1-1,0.2-1.2l5.1,9.1c-0.4-0.2-0.8-0.4-1.2-0.7c-0.4-0.2-0.9-0.3-1.4-0.3s-1.2,0.2-2,0.6l-17.1,9.7
			c0.7,1.5,1.1,2.5,1.3,3s0.5,1.2,0.9,1.9c0.4,0.7,0.7,1.3,0.9,1.7c0.9,1.5,1.8,2.9,2.9,4C731.1,288.8,732.4,289.8,733.9,290.7"/>
		<path class="st1" d="M740.8,399.1c-1.3-0.3-2.3-1-3.2-2s-1.5-2.3-1.8-3.9c-0.4-1.5-0.5-3.2-0.4-5.1c0.1-1.8,0.4-3.8,0.9-5.7
			c0.2-0.9,0.5-1.9,0.9-2.8c0.4-1,0.7-1.9,1.2-2.9c0.4-1,0.9-1.9,1.3-2.9l5.4,0.1c-1,0.9-1.9,1.8-2.6,2.9c-0.8,1-1.4,2.2-2,3.3
			c-0.6,1.2-1,2.3-1.3,3.5s-0.5,2.5-0.4,3.8c0,1.3,0.3,2.4,0.7,3.3s1,1.5,1.8,1.7c1.8,0.5,3.8-0.9,6.1-4.2c0.4-0.6,1.2-1.8,2.4-3.5
			s2.2-3.1,3.1-4.1c0.9-1,1.9-1.8,2.9-2.3s2.1-0.6,3.3-0.3c1.6,0.4,2.8,1.3,3.6,2.8c0.8,1.4,1.2,3.1,1.3,5.1c0,2-0.2,4-0.7,6.1
			c-0.4,1.7-1,3.4-1.6,5.1c-0.6,1.8-1.1,2.9-1.6,3.6l-4.4-1.1c0.9-0.8,1.8-2,2.6-3.5s1.5-3,1.9-4.6c0.4-1.7,0.5-3.2,0.2-4.6
			s-1-2.2-2-2.5c-0.7-0.2-1.4,0-2.2,0.5s-1.5,1.2-2.3,2c-0.7,0.9-1.7,2.3-3,4.2c-1.3,1.9-2,2.9-2.1,3c-1,1.6-2.3,2.9-3.8,4
			C743.6,399.1,742.2,399.4,740.8,399.1"/>
		<path class="st1" d="M731.8,429.4l11.2,0.7l-6.2-9.3L731.8,429.4z M712.9,435.8l5.6-9.8c-0.2,1.4,0,2.2,0.7,2.6
			c0.3,0.2,1,0.3,2,0.3l7.1,0.5l6.4-11.1l-4.5-6.4c-0.3-0.4-0.6-0.7-0.8-0.8c-0.3-0.2-0.6-0.2-0.9-0.2c-0.3,0.1-0.6,0.2-0.9,0.3
			c-0.3,0.2-0.7,0.4-1.1,0.6l5.2-9c0,1.5,0.2,2.7,0.5,3.7s0.7,1.8,1.2,2.4l12.1,18.3c0.2,0.4,0.5,0.7,0.8,0.8
			c0.3,0.2,0.7,0.2,1.1,0.1c0.4-0.1,0.8-0.3,1.1-0.6l-4.1,7.1l-26.2-0.8c-0.7,0-1.3,0-1.8,0.2c-0.5,0.1-1.1,0.4-1.7,0.6
			C714.3,435.1,713.7,435.4,712.9,435.8"/>
		<path class="st1" d="M706.1,470.7c0.8,0.9,1.7,1.3,2.6,1.2c0.9-0.1,1.9-0.5,2.9-1.3c1-0.7,2.4-1.9,4.2-3.6l-5.4-5.9
			c-0.1,0.1-0.4,0.3-0.7,0.6c-0.3,0.3-0.6,0.5-0.7,0.6c-0.9,0.8-1.7,1.7-2.3,2.8c-0.7,1.1-1.1,2.1-1.2,3.1
			C705.2,469.2,705.5,470,706.1,470.7 M695.4,463.9c0.6,0.7,1.5,1.1,2.5,1.3c1,0.1,2.2-0.1,3.6-0.8c1.4-0.6,3-1.8,4.8-3.4
			c0.2-0.1,0.4-0.3,0.6-0.6c0.3-0.3,0.5-0.5,0.8-0.8s0.5-0.5,0.7-0.7l-6.7-7.3c-1.6,1.1-3,2.3-4.4,3.5c-1.6,1.5-2.7,3-3.1,4.6
			S694.2,462.6,695.4,463.9 M690.8,468c-1.5-1.6-2-3.4-1.7-5.3s1.1-3.8,2.4-5.4c1.3-1.7,2.6-3.2,4-4.4l9.9-8.9
			c-0.3,0.9-0.5,1.7-0.3,2.2c0.1,0.5,0.5,1.1,1.1,1.9l13.4,14.8c0.5,0.6,1.1,1,1.8,1.2s1.4,0.2,2.1-0.1l-9.2,8.3
			c-1.6,1.5-3.2,2.6-4.9,3.4c-1.6,0.8-3.1,1.1-4.5,1.1c-1.4-0.1-2.5-0.6-3.3-1.5c-0.7-0.8-1.1-1.9-1-3.3s0.5-2.7,1.3-3.9
			c-2.2,1.2-4.3,1.9-6.1,2.2C693.9,470.3,692.3,469.6,690.8,468"/>
		<path class="st1" d="M667,473l9.9-5.8c-0.5,0.4-0.9,1.1-1.1,2c-0.2,0.9-0.1,1.7,0.3,2.5l10,17.1c0.4,0.8,1,1.3,1.6,1.7
			c0.6,0.3,1.5,0.4,2.6,0.3l-9.1,5.3c0.6-0.9,0.9-1.7,0.9-2.4c0.1-0.7-0.2-1.5-0.8-2.5l-9.8-16.7c-0.2-0.4-0.6-0.7-1.1-1
			c-0.6-0.3-1.2-0.5-1.8-0.5C668,472.8,667.4,472.8,667,473"/>
		<path class="st1" d="M633.7,499.3c0.4,1.3,1.1,2.6,2.1,3.7s2.3,2.1,3.8,2.8c1.5,0.7,3.1,1.2,5,1.3c1.8,0.2,3.7-0.1,5.6-0.7
			c1.4-0.4,2.8-1.1,4-2.1c1.2-0.9,2.3-2.1,3.1-3.4s1.4-2.8,1.7-4.3c0.3-1.6,0.1-3.1-0.3-4.7c-0.4-1.5-1.2-2.8-2.3-3.8
			c-1.1-1.1-2.4-1.9-3.9-2.5s-3.2-0.9-4.9-0.9s-3.5,0.2-5.2,0.7c-1.8,0.5-3.3,1.3-4.6,2.2c-1.3,1-2.3,2.1-3.1,3.3
			c-0.7,1.3-1.2,2.6-1.4,4C633.1,496.5,633.2,497.9,633.7,499.3 M627.7,501.7c-0.4-1.5-0.5-3.2-0.3-5c0.3-1.9,0.9-3.7,2-5.5
			s2.6-3.5,4.6-5.1c2-1.5,4.5-2.8,7.4-3.6c4-1.2,7.7-1.7,11-1.4c3.3,0.3,6,1.2,8.2,2.7s3.6,3.6,4.4,6.1c0.4,1.5,0.6,3.1,0.4,5
			c-0.2,1.8-0.8,3.7-1.9,5.5c-1.1,1.9-2.7,3.6-4.8,5.2c-2.2,1.6-4.9,2.9-8.1,3.9c-3.5,1.1-6.8,1.5-10,1.3s-5.9-1.1-8.1-2.6
			C630.1,506.5,628.5,504.4,627.7,501.7"/>
		<path class="st1" d="M520.1,477.9l-1,11.2l9.5-6L520.1,477.9z M514.2,458.9l9.6,5.9c-1.4-0.2-2.2,0-2.7,0.7c-0.2,0.3-0.3,1-0.4,2
			l-0.7,7.1l11,6.7l6.5-4.3c0.4-0.3,0.7-0.5,0.8-0.8c0.2-0.3,0.2-0.6,0.2-0.9s-0.2-0.6-0.3-1c-0.2-0.4-0.3-0.7-0.5-1.1l8.8,5.4
			c-1.5,0-2.7,0.1-3.8,0.4c-1,0.3-1.8,0.7-2.4,1.1l-18.6,11.6c-0.4,0.2-0.7,0.5-0.9,0.8s-0.3,0.7-0.2,1.1s0.3,0.8,0.5,1.2l-7-4.3
			l1.4-26.2c0.1-0.7,0-1.3-0.1-1.8c-0.1-0.6-0.3-1.1-0.6-1.7C514.8,460.4,514.5,459.7,514.2,458.9"/>
		<path class="st1" d="M485.7,435.9l6-1.4l14.6,16.6c-1.1-0.4-2-0.6-2.6-0.5c-0.7,0.1-1.3,0.4-1.8,0.8l-0.7,0.6l-14.3,12.5
			c-0.6,0.5-0.9,0.9-1.1,1.3c-0.1,0.3-0.2,0.8-0.1,1.4s0.1,1,0.1,1.2l-6.9-7.8c0.4,0.1,0.8,0.3,1.3,0.4c0.4,0.1,0.9,0.1,1.5,0
			c0.5-0.1,1.1-0.4,1.8-1l14.7-13c-0.9-1.3-1.6-2.2-1.9-2.7s-0.8-1-1.3-1.7c-0.5-0.6-0.9-1.1-1.2-1.5c-1.2-1.3-2.4-2.4-3.7-3.3
			C488.8,437.1,487.3,436.4,485.7,435.9"/>
		<path class="st1" d="M455.2,416.1c-0.3,0.7-0.3,1.7,0.1,3c0.3,1.3,0.9,2.6,1.7,4.1c1,1.8,1.9,3.3,2.7,4.3l6.3-3.4l-2.7-5.1
			c-1-1.8-1.6-2.7-1.9-2.8l4-2.1c-0.4,0.9,0.1,2.7,1.5,5.4c0.3,0.5,0.9,1.6,1.9,3.1l7.7-4.1c2.1-1.1,2.9-2.7,2.3-4.6l5.1,9.6
			c-0.9-0.8-1.7-1.2-2.5-1.1s-1.6,0.4-2.5,0.8l-17,9c-0.7,0.4-1.2,0.8-1.6,1.3s-0.5,1.2-0.5,2.2l-7.5-14c-1-1.9-1.7-2.9-2-3.1
			L455.2,416.1z"/>
		<path class="st1" d="M451.5,370.9c-1.4,0.3-2.6,0.9-3.9,1.9c-1.2,0.9-2.2,2.1-3.1,3.5s-1.4,3-1.7,4.8c-0.3,1.8-0.2,3.7,0.2,5.7
			c0.3,1.5,0.9,2.8,1.8,4.1c0.8,1.3,1.9,2.4,3.2,3.4c1.3,0.9,2.7,1.6,4.2,2s3.1,0.4,4.7,0c1.5-0.3,2.8-1,4-2c1.1-1,2.1-2.3,2.7-3.7
			c0.7-1.5,1.1-3.1,1.3-4.8c0.2-1.7,0.1-3.5-0.3-5.2c-0.4-1.8-1-3.4-1.9-4.7c-0.9-1.4-1.9-2.5-3.1-3.3s-2.5-1.4-3.9-1.6
			C454.3,370.5,452.9,370.6,451.5,370.9 M449.5,364.8c1.5-0.3,3.2-0.3,5,0.1s3.6,1.2,5.4,2.4c1.8,1.2,3.3,2.8,4.7,4.9
			c1.4,2.1,2.4,4.6,3.1,7.6c0.9,4.1,1.1,7.8,0.6,11c-0.5,3.3-1.6,5.9-3.3,8c-1.7,2.1-3.8,3.4-6.4,3.9c-1.5,0.3-3.2,0.3-5,0
			s-3.6-1.1-5.4-2.3c-1.8-1.2-3.4-2.9-4.9-5.2c-1.5-2.3-2.6-5.1-3.3-8.4c-0.8-3.6-1-6.9-0.5-10.1s1.5-5.8,3.2-7.9
			C444.5,366.8,446.8,365.4,449.5,364.8"/>
		<path class="st1" d="M439.2,316.3c0.1,0.4,0.3,0.8,0.4,1.2c0.1,0.5,0.3,0.8,0.5,1.1c0.2,0.3,0.5,0.5,0.9,0.7s1.1,0.5,1.9,0.7
			l23.6,2.2c0,0.5-0.2,1.2-0.5,1.9c-0.3,0.8-0.7,1.5-1.1,2.1c-0.4,0.7-0.9,1.2-1.3,1.5l-21.4,17.9l17,1.6c1.1,0.1,2,0,2.6-0.4
			s1.2-1.1,1.8-2.1l-0.9,10c-0.1-0.4-0.3-0.8-0.5-1.2c-0.2-0.4-0.4-0.8-0.6-1.1c-0.2-0.3-0.5-0.5-1-0.8c-0.4-0.3-0.9-0.4-1.5-0.6
			l-18.2-1.7c-1-0.1-1.7-0.1-2.3,0.1c-0.6,0.2-1,0.4-1.3,0.6c-0.3,0.3-0.6,0.6-0.8,1.1c-0.3,0.5-0.4,0.8-0.6,1l0.7-7.8l22.8-19.2
			l-16.4-1.5c-1.3-0.1-2.4,0.1-3.2,0.6c-0.8,0.5-1.3,1.3-1.6,2.4L439.2,316.3z"/>
		<path class="st1" d="M472.2,282.4c1.2,0.5,2.2,1.3,2.9,2.5c0.7,1.1,1.1,2.5,1.3,4.1c0.1,1.6,0,3.3-0.3,5.1
			c-0.4,1.8-0.9,3.7-1.7,5.5c-0.4,0.9-0.8,1.8-1.3,2.7c-0.5,0.9-1,1.8-1.6,2.7c-0.6,0.9-1.1,1.8-1.7,2.6l-5.3-0.9
			c1.1-0.7,2.1-1.5,3-2.4s1.7-1.9,2.4-3c0.7-1.1,1.3-2.2,1.8-3.3c0.5-1.2,0.8-2.4,1-3.7c0.1-1.3,0.1-2.4-0.2-3.4
			c-0.3-1-0.8-1.6-1.6-1.9c-1.7-0.7-3.9,0.4-6.6,3.3c-0.5,0.5-1.5,1.6-2.9,3.1c-1.4,1.6-2.7,2.8-3.7,3.6c-1,0.9-2.1,1.5-3.2,1.8
			c-1.1,0.4-2.2,0.3-3.3-0.2c-1.5-0.6-2.6-1.7-3.2-3.2s-0.8-3.3-0.5-5.2c0.2-2,0.8-3.9,1.6-5.9c0.7-1.6,1.4-3.2,2.3-4.9
			c0.9-1.6,1.5-2.7,2.1-3.3l4.2,1.8c-1,0.7-2,1.7-3.1,3.1s-1.9,2.8-2.5,4.3c-0.7,1.6-0.9,3.1-0.8,4.5s0.7,2.3,1.6,2.7
			c0.7,0.3,1.4,0.2,2.3-0.1c0.8-0.4,1.7-0.9,2.5-1.7c0.8-0.8,2.1-2,3.6-3.7c1.6-1.7,2.4-2.6,2.5-2.7c1.3-1.4,2.7-2.5,4.3-3.4
			C469.4,282,470.9,281.8,472.2,282.4"/>
		<path class="st1" d="M495.2,242.4c-1.1-0.9-2.3-1.6-3.8-2s-3-0.5-4.7-0.3s-3.3,0.7-4.9,1.6c-1.6,0.9-3.1,2.1-4.4,3.6
			c-1,1.1-1.7,2.4-2.2,3.9s-0.8,3-0.8,4.6s0.3,3.1,1,4.6c0.6,1.5,1.6,2.7,2.8,3.8c1.2,1,2.5,1.7,4,2s3,0.3,4.6-0.1s3.1-1,4.6-1.9
			s2.8-2,3.9-3.4c1.2-1.4,2.1-2.9,2.6-4.4c0.6-1.5,0.8-3,0.8-4.5c-0.1-1.5-0.4-2.8-1-4.1C497.1,244.4,496.3,243.3,495.2,242.4
			 M498.8,237.1c1.2,1,2.2,2.3,3,4s1.2,3.6,1.4,5.7c0.1,2.1-0.3,4.4-1.1,6.7c-0.8,2.4-2.2,4.7-4.2,7.1c-2.7,3.2-5.5,5.6-8.4,7.2
			s-5.7,2.3-8.4,2.2c-2.7-0.1-5-1-7-2.7c-1.2-1-2.2-2.3-3-4c-0.8-1.6-1.3-3.5-1.4-5.7c-0.1-2.1,0.3-4.5,1.2-7
			c0.9-2.5,2.5-5.1,4.7-7.7c2.4-2.8,4.9-5,7.7-6.5c2.8-1.5,5.5-2.3,8.3-2.2C494.2,234.4,496.7,235.3,498.8,237.1"/>
		<path class="st1" d="M621.8,212.1l-6.5-0.1c-1.3,0-2.6-0.8-3.9-2.3l-8.3-9.6l-8,8.2c-0.5,0.7-0.8,1.2-0.8,1.5
			c0,0.5,0.2,0.9,0.6,1.2c0.4,0.3,0.9,0.6,1.4,0.8l-10.7-0.1l15-14.2l-8.6-9.9c-0.5-0.6-1.1-1.1-1.7-1.5c-0.6-0.4-1.5-0.8-2.5-1.3
			h5.5c1.3,0,2.3,0.1,2.9,0.4c0.6,0.3,1.2,0.7,1.7,1.4l6.6,7.8l6.3-6.3c0.4-0.5,0.7-1,0.7-1.4c0-0.3-0.2-0.7-0.7-1s-1.2-0.6-2.1-0.7
			l10.6,0.1L606.9,197l10.4,12.2c1,0.9,1.8,1.6,2.4,2.1C620.2,211.7,621,212,621.8,212.1"/>
		<path class="st1" d="M539.3,214.4c1.9,0,4,0.3,6,0.9c0.3,0.1,0.9,0.3,1.2,0.5l1.1-4.6c-2.1,0.9-4.5,1.5-6.9,1.7h-1l-0.2-0.7
			c1.5-1.8,3.4-3.2,5.4-4.5c0.4,0,0.6-0.2,0.9-0.3l-4.2-2.3c-0.5,1.8-1.2,3.4-2.3,4.6c-0.6,0.7-0.9,1.3-1.5,1.8l-0.7,0.3
			c-0.9-1.9-1.2-4-0.9-6.1l0.2-0.5l-5.4,2.5c1.8,1,3.2,2.3,4,4.1l0.3,0.7l-0.6,0.4c-1.9,0-3.9-0.2-5.7-0.7c-0.6-0.1-1.1-0.4-1.6-0.7
			l-1.1,4.7c2.4-0.9,4.7-1.5,7-1.6h1.1l0.2,0.7c-1.7,1.8-3.6,3.3-5.8,4.5c-0.1,0.2-0.4,0.2-0.7,0.3l4.1,2.3c0.6-1.6,1.1-2.9,2.2-4.1
			c0.6-0.9,1.1-1.6,1.6-2.4l0.7-0.1c1,1.8,1.3,3.7,1,5.7v0.8l5.2-2.5c-1.6-0.9-3-2.3-3.9-4.2l-0.3-0.5L539.3,214.4z"/>
		<path class="st1" d="M751.1,332.7c-0.6,1.8-1.5,3.7-2.6,5.4c-0.2,0.3-0.6,0.8-0.8,1l4.1,2.5c-0.2-2.3,0-4.7,0.5-7.1l0.3-1h0.8
			c1.3,1.9,2,4.2,2.6,6.5c-0.1,0.4,0,0.6,0.1,1l3.5-3.3c-1.5-1-2.9-2.2-3.7-3.6c-0.5-0.7-0.9-1.2-1.3-1.9v-0.8c2-0.3,4.2,0,6,1
			l0.4,0.3l-0.7-5.9c-1.5,1.4-3.2,2.4-5.1,2.5l-0.7,0.1l-0.2-0.7c0.6-1.8,1.4-3.6,2.4-5.2c0.3-0.5,0.8-0.9,1.2-1.3l-4.1-2.5
			c0.1,2.5,0,4.9-0.6,7.2l-0.3,1h-0.7c-1.2-2.1-2-4.4-2.5-6.9c-0.1-0.2-0.1-0.4-0.1-0.8l-3.5,3.2c1.4,1,2.4,1.9,3.3,3.3
			c0.7,0.8,1.2,1.5,1.8,2.3l-0.1,0.7c-2,0.4-4,0.1-5.7-0.8l-0.7-0.2l0.9,5.7c1.3-1.3,3.1-2.1,5.2-2.5l0.5-0.1L751.1,332.7z"/>
		<path class="st1" d="M578.8,499.1c-1.7-1-3.2-2.3-4.6-3.8c-0.2-0.3-0.6-0.8-0.8-1l-3.4,3.4c2.3,0.3,4.6,1.1,6.7,2.1l0.9,0.5
			l-0.2,0.7c-2.2,0.8-4.6,1-7,1c-0.3-0.2-0.6-0.2-0.9-0.2l2.3,4.2c1.3-1.3,2.8-2.3,4.4-2.8c0.8-0.3,1.4-0.6,2.2-0.8l0.8,0.2
			c-0.2,2.1-1,4.1-2.4,5.6l-0.4,0.3l5.9,0.7c-1-1.8-1.5-3.7-1.3-5.6l0.1-0.7l0.7-0.1c1.6,1,3.2,2.2,4.5,3.6c0.4,0.4,0.7,1,1,1.4
			l3.4-3.4c-2.5-0.5-4.8-1.2-6.8-2.3l-0.9-0.6l0.2-0.7c2.3-0.6,4.8-0.9,7.3-0.8c0.2-0.1,0.4,0,0.8,0.1L589,496
			c-1.3,1.1-2.4,1.9-4,2.4c-1,0.5-1.8,0.8-2.6,1.2l-0.7-0.3c0.1-2,0.8-3.9,2.2-5.4l0.4-0.7l-5.7-0.5c0.9,1.6,1.3,3.6,1.2,5.6v0.5
			L578.8,499.1z"/>
		<path class="st1" d="M665.7,214.8c1.3,1.5,2.3,3.2,3.2,5.1c0.1,0.3,0.3,0.9,0.4,1.2l4.3-2.2c-2.1-1-4-2.5-5.7-4.2l-0.7-0.8
			l0.4-0.6c2.3-0.1,4.7,0.5,6.9,1.2c0.3,0.3,0.5,0.3,0.8,0.5l-0.9-4.7c-1.6,0.8-3.4,1.3-5,1.3c-0.9,0-1.5,0.1-2.3,0l-0.7-0.4
			c0.8-1.9,2.3-3.6,4-4.6l0.5-0.1l-5.4-2.5c0.4,2,0.3,4-0.5,5.7l-0.3,0.7l-0.7-0.2c-1.2-1.5-2.4-3.1-3.1-4.8
			c-0.3-0.5-0.4-1.1-0.5-1.7l-4.3,2.2c2.2,1.2,4.2,2.6,5.7,4.3l0.7,0.8l-0.4,0.6c-2.4-0.1-4.8-0.6-7.2-1.5c-0.2,0-0.4-0.2-0.7-0.3
			l0.9,4.7c1.6-0.6,2.9-1,4.5-1c1.1-0.2,1.9-0.2,2.9-0.3l0.6,0.5c-0.8,1.9-2,3.4-3.7,4.4l-0.6,0.5l5.3,2.3c-0.4-1.8-0.1-3.8,0.6-5.7
			l0.2-0.5L665.7,214.8z"/>
		<path class="st0" d="M611.2,161.4c-3.8,0-8.4-1.9-8.8-14.7v-0.1l0,0l0,0l0,0v0.1c-0.3,12.8-5,14.7-8.8,14.7c-4,0-8.2-2.9-8.2-9.5
			c0-5.3,7.9-6.6,12.9-7l1.7-0.1l0,0l0,0l0,0h-0.1h-0.6c-4.8-0.2-14-1.4-14-7.1c0-6.6,4.2-9.5,8.2-9.5c3.8,0,8.4,1.9,8.8,14.7v0.1
			l0,0l0,0l0,0v-0.1c0.3-12.8,5-14.7,8.8-14.7c4,0,8.2,2.9,8.2,9.5c0,5.7-9.2,6.9-14,7.1h-0.6h-0.1l0,0l0,0l0,0l1.7,0.1
			c5,0.3,12.9,1.7,12.9,7C619.4,158.5,615.2,161.4,611.2,161.4 M612.7,144.8L612.7,144.8c4.8-0.1,8.2-3.6,8.2-7.3
			s-2.2-10.8-9.8-10.8c-7.2,0-8.6,6.8-8.7,7.5c-0.1-0.7-1.5-7.5-8.7-7.5c-7.6,0-9.8,7.1-9.8,10.8s3.4,7.2,8.2,7.2l0,0
			c-4.8,0.1-8.2,3.5-8.2,7.2s2.2,10.8,9.8,10.8c7.2,0,8.6-6.8,8.7-7.5c0.1,0.7,1.5,7.5,8.7,7.5c7.6,0,9.8-7.1,9.8-10.8
			C620.9,148.3,617.5,144.8,612.7,144.8"/>
	</g>
</g>
</svg>
